<svg width="129.4" height="70.001" viewBox="0 0 129.4 70.001" xmlns="http://www.w3.org/2000/svg"><g id="svgGroup" stroke-linecap="round" fill-rule="evenodd" font-size="9pt" stroke="#ffffff" stroke-width="0.25mm" fill="#ffffff" style="stroke:#ffffff;stroke-width:0.25mm;fill:#ffffff"><path d="M 4.1 70 L 2.3 70 A 2.735 2.735 0 0 1 1.519 69.894 A 2.178 2.178 0 0 1 0.65 69.4 Q 0 68.8 0 67.8 L 0 2.3 A 2.98 2.98 0 0 1 0.076 1.607 A 1.951 1.951 0 0 1 0.65 0.6 A 2.24 2.24 0 0 1 1.934 0.022 A 3.03 3.03 0 0 1 2.3 0 L 4.8 0 A 3.188 3.188 0 0 1 5.363 0.047 Q 5.672 0.102 5.914 0.224 A 1.482 1.482 0 0 1 6.3 0.5 Q 6.8 1 6.9 1.3 L 29.6 45.5 L 52.4 1.3 A 3.816 3.816 0 0 1 52.541 1.105 Q 52.689 0.911 52.909 0.66 A 15.449 15.449 0 0 1 53.05 0.5 Q 53.403 0.108 54.094 0.024 A 3.346 3.346 0 0 1 54.5 0 L 56.9 0 A 3.246 3.246 0 0 1 57.568 0.065 Q 58.197 0.197 58.6 0.6 A 1.953 1.953 0 0 1 59.1 1.486 Q 59.2 1.851 59.2 2.3 L 59.2 67.8 Q 59.2 68.8 58.6 69.4 A 1.953 1.953 0 0 1 57.715 69.9 Q 57.349 70 56.9 70 L 55.1 70 A 2.705 2.705 0 0 1 54.406 69.916 A 1.97 1.97 0 0 1 53.5 69.4 A 2.008 2.008 0 0 1 52.942 68.303 A 2.864 2.864 0 0 1 52.9 67.8 L 52.9 13.6 L 33.8 51.2 A 3.769 3.769 0 0 1 33.392 51.967 A 2.802 2.802 0 0 1 32.65 52.7 Q 31.994 53.138 30.993 53.193 A 5.37 5.37 0 0 1 30.7 53.2 L 28.5 53.2 A 4.664 4.664 0 0 1 27.742 53.143 Q 27.338 53.076 27.012 52.933 A 2.283 2.283 0 0 1 26.6 52.7 Q 25.966 52.247 25.496 51.383 A 5.939 5.939 0 0 1 25.4 51.2 L 6.3 13.6 L 6.3 67.8 Q 6.3 68.8 5.7 69.4 A 2.008 2.008 0 0 1 4.603 69.958 A 2.864 2.864 0 0 1 4.1 70 Z M 102 70 L 80.2 70 A 2.705 2.705 0 0 1 79.506 69.916 A 1.97 1.97 0 0 1 78.6 69.4 A 2.008 2.008 0 0 1 78.042 68.303 A 2.864 2.864 0 0 1 78 67.8 L 78 2.3 A 3.246 3.246 0 0 1 78.065 1.632 Q 78.197 1.003 78.6 0.6 A 2.008 2.008 0 0 1 79.697 0.043 A 2.864 2.864 0 0 1 80.2 0 L 101.5 0 Q 108.342 0 113.268 1.292 A 23.489 23.489 0 0 1 118.1 3.1 Q 124.1 6.2 126.65 12.25 A 31.244 31.244 0 0 1 128.497 18.476 Q 129.247 22.362 129.3 27 Q 129.4 31.5 129.4 34.95 Q 129.4 37.915 129.326 41.656 A 502.962 502.962 0 0 1 129.3 42.9 A 59.05 59.05 0 0 1 128.843 49.225 Q 128.182 54.303 126.6 58.1 Q 124.1 64.1 118.2 67.05 Q 114.03 69.135 107.662 69.747 A 59.391 59.391 0 0 1 102 70 Z M 84.3 6 L 84.3 64 L 101.5 64 A 48.716 48.716 0 0 0 106.173 63.79 Q 110.953 63.328 114.15 61.85 Q 118.8 59.7 120.85 54.95 A 22.436 22.436 0 0 0 122.113 50.959 Q 122.938 47.275 123 42.4 A 207.936 207.936 0 0 0 123.061 40.256 Q 123.1 38.557 123.1 37.15 L 123.1 32.7 A 117.874 117.874 0 0 0 123.086 30.938 Q 123.063 29.375 123 27.5 Q 122.8 16.5 117.9 11.25 A 14.002 14.002 0 0 0 112.868 7.9 Q 108.514 6.121 101.906 6.008 A 53.026 53.026 0 0 0 101 6 L 84.3 6 Z" vector-effect="non-scaling-stroke"/></g></svg>