<svg width="444.7" height="72.001" viewBox="0 0 444.7 72.001" xmlns="http://www.w3.org/2000/svg"><g id="svgGroup" stroke-linecap="round" fill-rule="evenodd" font-size="9pt" stroke="#ffffff" stroke-width="0.25mm" fill="#ffffff" style="stroke:#ffffff;stroke-width:0.25mm;fill:#ffffff"><path d="M 4.1 71 L 2.3 71 A 2.735 2.735 0 0 1 1.519 70.893 A 2.178 2.178 0 0 1 0.65 70.4 Q 0 69.8 0 68.8 L 0 3.3 A 2.98 2.98 0 0 1 0.076 2.607 A 1.951 1.951 0 0 1 0.65 1.6 A 2.24 2.24 0 0 1 1.934 1.022 A 3.03 3.03 0 0 1 2.3 1 L 4.8 1 A 3.188 3.188 0 0 1 5.363 1.047 Q 5.672 1.102 5.914 1.224 A 1.482 1.482 0 0 1 6.3 1.5 Q 6.8 2 6.9 2.3 L 29.6 46.5 L 52.4 2.3 A 3.816 3.816 0 0 1 52.541 2.104 Q 52.689 1.911 52.909 1.659 A 15.449 15.449 0 0 1 53.05 1.5 Q 53.403 1.108 54.094 1.023 A 3.346 3.346 0 0 1 54.5 1 L 56.9 1 A 3.246 3.246 0 0 1 57.568 1.065 Q 58.197 1.197 58.6 1.6 A 1.953 1.953 0 0 1 59.1 2.485 Q 59.2 2.851 59.2 3.3 L 59.2 68.8 Q 59.2 69.8 58.6 70.4 A 1.953 1.953 0 0 1 57.715 70.9 Q 57.349 71 56.9 71 L 55.1 71 A 2.705 2.705 0 0 1 54.406 70.916 A 1.97 1.97 0 0 1 53.5 70.4 A 2.008 2.008 0 0 1 52.942 69.303 A 2.864 2.864 0 0 1 52.9 68.8 L 52.9 14.6 L 33.8 52.2 A 3.769 3.769 0 0 1 33.392 52.967 A 2.802 2.802 0 0 1 32.65 53.7 Q 31.994 54.138 30.993 54.192 A 5.37 5.37 0 0 1 30.7 54.2 L 28.5 54.2 A 4.664 4.664 0 0 1 27.742 54.142 Q 27.338 54.076 27.012 53.932 A 2.283 2.283 0 0 1 26.6 53.7 Q 25.966 53.247 25.496 52.383 A 5.939 5.939 0 0 1 25.4 52.2 L 6.3 14.6 L 6.3 68.8 Q 6.3 69.8 5.7 70.4 A 2.008 2.008 0 0 1 4.603 70.958 A 2.864 2.864 0 0 1 4.1 71 Z M 409.6 71 L 407.9 71 Q 406.9 71 406.3 70.4 A 2.008 2.008 0 0 1 405.742 69.303 A 2.864 2.864 0 0 1 405.7 68.8 L 405.7 2.2 Q 405.7 1.2 406.3 0.6 A 2.008 2.008 0 0 1 407.397 0.042 A 2.864 2.864 0 0 1 407.9 0 L 409.6 0 A 2.705 2.705 0 0 1 410.294 0.084 A 1.97 1.97 0 0 1 411.2 0.6 A 2.008 2.008 0 0 1 411.758 1.697 A 2.864 2.864 0 0 1 411.8 2.2 L 411.8 37.6 L 434.1 20.7 A 30.252 30.252 0 0 1 434.744 20.207 Q 435.629 19.55 436.116 19.316 A 2.627 2.627 0 0 1 436.15 19.3 Q 436.672 19.059 437.743 19.012 A 12.63 12.63 0 0 1 438.3 19 L 440.2 19 A 2.391 2.391 0 0 1 440.85 19.084 A 1.803 1.803 0 0 1 441.65 19.55 A 1.846 1.846 0 0 1 442.17 20.597 A 2.585 2.585 0 0 1 442.2 21 Q 442.2 21.291 442.068 21.661 A 3.738 3.738 0 0 1 441.95 21.95 A 1.732 1.732 0 0 1 441.671 22.372 Q 441.388 22.695 440.9 23 L 415.6 42.2 L 443.4 67 Q 444.325 67.854 444.592 68.505 A 1.31 1.31 0 0 1 444.7 69 A 2.391 2.391 0 0 1 444.616 69.65 A 1.803 1.803 0 0 1 444.15 70.45 A 1.846 1.846 0 0 1 443.103 70.97 A 2.585 2.585 0 0 1 442.7 71 L 441.1 71 Q 439.935 71 439.282 70.849 A 2.5 2.5 0 0 1 438.95 70.75 Q 438.3 70.5 436.9 69.3 L 411.8 47 L 411.8 68.8 Q 411.8 69.8 411.2 70.4 A 2.008 2.008 0 0 1 410.103 70.958 A 2.864 2.864 0 0 1 409.6 71 Z M 130.1 58.3 L 131.6 58.3 A 3.046 3.046 0 0 1 132.121 58.343 A 2.241 2.241 0 0 1 132.65 58.5 Q 132.992 58.652 133.477 59.207 A 8.862 8.862 0 0 1 133.8 59.6 A 24.401 24.401 0 0 0 136.356 62.436 A 27.369 27.369 0 0 0 136.8 62.85 A 10.705 10.705 0 0 0 139.013 64.388 A 14.54 14.54 0 0 0 141.15 65.3 A 15.152 15.152 0 0 0 143.514 65.881 Q 144.703 66.08 146.08 66.155 A 31.711 31.711 0 0 0 147.8 66.2 A 25.781 25.781 0 0 0 152.005 65.877 Q 155.263 65.338 157.7 63.9 A 8.318 8.318 0 0 0 160.096 61.841 Q 161.412 60.138 161.577 57.786 A 9.824 9.824 0 0 0 161.6 57.1 A 8.214 8.214 0 0 0 161.382 55.155 A 5.733 5.733 0 0 0 160.05 52.6 A 7.485 7.485 0 0 0 158.732 51.479 Q 157.229 50.454 154.8 49.6 Q 151.269 48.359 145.37 47.028 A 173.856 173.856 0 0 0 144.8 46.9 Q 138.5 45.4 135.15 43.3 Q 131.8 41.2 130.6 38.45 A 14.601 14.601 0 0 1 129.405 32.923 A 16.834 16.834 0 0 1 129.4 32.5 A 12.705 12.705 0 0 1 130.621 27.123 A 15.793 15.793 0 0 1 131.4 25.65 A 14.177 14.177 0 0 1 135.177 21.532 A 18.297 18.297 0 0 1 137.35 20.15 A 16.43 16.43 0 0 1 141.504 18.607 Q 143.45 18.154 145.719 18.039 A 31.256 31.256 0 0 1 147.3 18 A 30.823 30.823 0 0 1 151.041 18.215 Q 152.941 18.447 154.56 18.932 A 16.665 16.665 0 0 1 155.65 19.3 Q 159.1 20.6 161.3 22.45 Q 162.984 23.867 163.995 25.254 A 9.991 9.991 0 0 1 164.55 26.1 A 14.814 14.814 0 0 1 165.063 27.051 Q 165.518 27.982 165.653 28.677 A 3.213 3.213 0 0 1 165.7 29 A 2.476 2.476 0 0 1 165.712 29.214 Q 165.718 29.621 165.578 29.956 A 1.713 1.713 0 0 1 165.1 30.6 Q 164.4 31.2 163.5 31.2 L 162 31.2 A 2.989 2.989 0 0 1 161.453 31.153 Q 161.139 31.094 160.888 30.964 A 1.669 1.669 0 0 1 160.7 30.85 A 3.197 3.197 0 0 1 160.128 30.331 A 4.157 4.157 0 0 1 159.8 29.9 Q 158.8 28.3 157.4 26.9 A 8.508 8.508 0 0 0 155.674 25.585 Q 154.77 25.055 153.65 24.65 Q 151.3 23.8 147.3 23.8 A 23.565 23.565 0 0 0 144.17 23.994 Q 140.484 24.489 138.4 26.25 Q 135.5 28.7 135.5 32.5 Q 135.5 34.7 136.7 36.35 A 5.824 5.824 0 0 0 137.758 37.437 Q 139.022 38.459 141.2 39.35 A 35.909 35.909 0 0 0 143.49 40.187 Q 145.847 40.968 149.144 41.795 A 139.018 139.018 0 0 0 150.8 42.2 Q 157.2 43.6 160.9 45.65 A 17.288 17.288 0 0 1 163.37 47.291 Q 164.671 48.339 165.538 49.538 A 9.481 9.481 0 0 1 166.15 50.5 Q 167.7 53.3 167.7 57.1 Q 167.7 61.1 165.45 64.5 A 14.035 14.035 0 0 1 161.778 68.223 A 19.125 19.125 0 0 1 158.75 69.95 A 20.844 20.844 0 0 1 154.128 71.422 Q 151.253 72 147.8 72 A 32.387 32.387 0 0 1 143.671 71.751 Q 141.557 71.479 139.751 70.91 A 18.323 18.323 0 0 1 138.85 70.6 A 27.296 27.296 0 0 1 135.877 69.295 Q 134.408 68.537 133.229 67.661 A 15.526 15.526 0 0 1 132.7 67.25 A 21.214 21.214 0 0 1 131.076 65.795 Q 130.321 65.04 129.758 64.293 A 10.572 10.572 0 0 1 129.15 63.4 Q 128 61.5 127.9 60.5 A 2.657 2.657 0 0 1 127.889 60.292 Q 127.885 59.928 127.989 59.631 A 1.56 1.56 0 0 1 128.6 58.85 A 3.861 3.861 0 0 1 129.138 58.537 Q 129.444 58.393 129.735 58.336 A 1.913 1.913 0 0 1 130.1 58.3 Z M 179.3 58.3 L 180.8 58.3 A 3.046 3.046 0 0 1 181.321 58.343 A 2.241 2.241 0 0 1 181.85 58.5 Q 182.192 58.652 182.677 59.207 A 8.862 8.862 0 0 1 183 59.6 A 24.401 24.401 0 0 0 185.556 62.436 A 27.369 27.369 0 0 0 186 62.85 A 10.705 10.705 0 0 0 188.213 64.388 A 14.54 14.54 0 0 0 190.35 65.3 A 15.152 15.152 0 0 0 192.714 65.881 Q 193.903 66.08 195.28 66.155 A 31.711 31.711 0 0 0 197 66.2 A 25.781 25.781 0 0 0 201.205 65.877 Q 204.463 65.338 206.9 63.9 A 8.318 8.318 0 0 0 209.296 61.841 Q 210.612 60.138 210.777 57.786 A 9.824 9.824 0 0 0 210.8 57.1 A 8.214 8.214 0 0 0 210.582 55.155 A 5.733 5.733 0 0 0 209.25 52.6 A 7.485 7.485 0 0 0 207.932 51.479 Q 206.429 50.454 204 49.6 Q 200.469 48.359 194.57 47.028 A 173.856 173.856 0 0 0 194 46.9 Q 187.7 45.4 184.35 43.3 Q 181 41.2 179.8 38.45 A 14.601 14.601 0 0 1 178.605 32.923 A 16.834 16.834 0 0 1 178.6 32.5 A 12.705 12.705 0 0 1 179.821 27.123 A 15.793 15.793 0 0 1 180.6 25.65 A 14.177 14.177 0 0 1 184.377 21.532 A 18.297 18.297 0 0 1 186.55 20.15 A 16.43 16.43 0 0 1 190.704 18.607 Q 192.65 18.154 194.919 18.039 A 31.256 31.256 0 0 1 196.5 18 A 30.823 30.823 0 0 1 200.241 18.215 Q 202.141 18.447 203.76 18.932 A 16.665 16.665 0 0 1 204.85 19.3 Q 208.3 20.6 210.5 22.45 Q 212.184 23.867 213.195 25.254 A 9.991 9.991 0 0 1 213.75 26.1 A 14.814 14.814 0 0 1 214.263 27.051 Q 214.718 27.982 214.853 28.677 A 3.213 3.213 0 0 1 214.9 29 A 2.476 2.476 0 0 1 214.912 29.214 Q 214.918 29.621 214.778 29.956 A 1.713 1.713 0 0 1 214.3 30.6 Q 213.6 31.2 212.7 31.2 L 211.2 31.2 A 2.989 2.989 0 0 1 210.653 31.153 Q 210.339 31.094 210.088 30.964 A 1.669 1.669 0 0 1 209.9 30.85 A 3.197 3.197 0 0 1 209.328 30.331 A 4.157 4.157 0 0 1 209 29.9 Q 208 28.3 206.6 26.9 A 8.508 8.508 0 0 0 204.874 25.585 Q 203.97 25.055 202.85 24.65 Q 200.5 23.8 196.5 23.8 A 23.565 23.565 0 0 0 193.37 23.994 Q 189.684 24.489 187.6 26.25 Q 184.7 28.7 184.7 32.5 Q 184.7 34.7 185.9 36.35 A 5.824 5.824 0 0 0 186.958 37.437 Q 188.222 38.459 190.4 39.35 A 35.909 35.909 0 0 0 192.69 40.187 Q 195.047 40.968 198.344 41.795 A 139.018 139.018 0 0 0 200 42.2 Q 206.4 43.6 210.1 45.65 A 17.288 17.288 0 0 1 212.57 47.291 Q 213.871 48.339 214.738 49.538 A 9.481 9.481 0 0 1 215.35 50.5 Q 216.9 53.3 216.9 57.1 Q 216.9 61.1 214.65 64.5 A 14.035 14.035 0 0 1 210.978 68.223 A 19.125 19.125 0 0 1 207.95 69.95 A 20.844 20.844 0 0 1 203.328 71.422 Q 200.453 72 197 72 A 32.387 32.387 0 0 1 192.871 71.751 Q 190.757 71.479 188.951 70.91 A 18.323 18.323 0 0 1 188.05 70.6 A 27.296 27.296 0 0 1 185.077 69.295 Q 183.608 68.537 182.429 67.661 A 15.526 15.526 0 0 1 181.9 67.25 A 21.214 21.214 0 0 1 180.276 65.795 Q 179.521 65.04 178.958 64.293 A 10.572 10.572 0 0 1 178.35 63.4 Q 177.2 61.5 177.1 60.5 A 2.657 2.657 0 0 1 177.089 60.292 Q 177.085 59.928 177.189 59.631 A 1.56 1.56 0 0 1 177.8 58.85 A 3.861 3.861 0 0 1 178.338 58.537 Q 178.644 58.393 178.935 58.336 A 1.913 1.913 0 0 1 179.3 58.3 Z M 390.2 36.1 L 388.8 36.1 A 3.515 3.515 0 0 1 388.281 36.065 Q 387.674 35.974 387.35 35.65 Q 386.982 35.282 386.581 34.413 A 11.96 11.96 0 0 1 386.4 34 Q 384.3 28.3 380.65 26.05 Q 377 23.8 371.7 23.8 A 18.274 18.274 0 0 0 366.245 24.58 A 14.877 14.877 0 0 0 360.45 27.95 Q 356 32.1 355.7 41.5 Q 355.5 45 355.7 48.5 A 32.523 32.523 0 0 0 356.197 53.372 Q 357.252 59.067 360.45 62.05 A 15.302 15.302 0 0 0 369.532 66.088 A 20.535 20.535 0 0 0 371.7 66.2 Q 377 66.2 380.65 63.95 Q 384.3 61.7 386.4 56 Q 386.795 55.052 387.159 54.572 A 2.155 2.155 0 0 1 387.35 54.35 A 1.339 1.339 0 0 1 387.828 54.051 Q 388.037 53.971 388.299 53.933 A 3.545 3.545 0 0 1 388.8 53.9 L 390.2 53.9 Q 391.1 53.9 391.8 54.5 Q 392.489 55.091 392.403 56.069 A 2.643 2.643 0 0 1 392.4 56.1 A 14.694 14.694 0 0 1 391.597 60.225 A 16.503 16.503 0 0 1 391.5 60.5 A 14.632 14.632 0 0 1 390.041 63.411 A 18.037 18.037 0 0 1 389.05 64.8 Q 387.4 66.9 385 68.5 Q 382.6 70.1 379.25 71.05 A 24.419 24.419 0 0 1 375.272 71.812 A 32.483 32.483 0 0 1 371.7 72 A 29.674 29.674 0 0 1 366.168 71.511 Q 362.799 70.871 360.067 69.397 A 18.498 18.498 0 0 1 359.8 69.25 Q 354.9 66.5 352.35 61.3 A 25.889 25.889 0 0 1 350.225 54.849 A 35.639 35.639 0 0 1 349.6 49 Q 349.505 47.569 349.5 45.226 A 121.622 121.622 0 0 1 349.5 45 Q 349.5 42.866 349.573 41.461 A 31.299 31.299 0 0 1 349.6 41 A 36.174 36.174 0 0 1 350.22 35.117 Q 350.911 31.557 352.35 28.65 Q 354.9 23.5 359.8 20.75 A 20.758 20.758 0 0 1 365.965 18.529 Q 368.464 18.033 371.318 18.002 A 35.202 35.202 0 0 1 371.7 18 Q 377 18 380.85 19.45 A 21.87 21.87 0 0 1 384.263 21.066 A 16.535 16.535 0 0 1 387.2 23.25 A 17.842 17.842 0 0 1 389.856 26.363 A 15.338 15.338 0 0 1 391 28.4 A 15.707 15.707 0 0 1 392.073 31.476 A 12.862 12.862 0 0 1 392.4 33.9 A 2.476 2.476 0 0 1 392.412 34.114 Q 392.418 34.521 392.278 34.856 A 1.713 1.713 0 0 1 391.8 35.5 Q 391.1 36.1 390.2 36.1 Z M 118.1 43.8 L 118.1 45.3 A 2.49 2.49 0 0 1 118.001 46.02 A 1.936 1.936 0 0 1 117.45 46.9 A 2.24 2.24 0 0 1 116.166 47.479 A 3.03 3.03 0 0 1 115.8 47.5 L 80.2 47.5 L 80.2 47.9 L 80.2 48.5 Q 80.4 53 82.3 57.05 Q 84.2 61.1 87.7 63.65 Q 91.2 66.2 96 66.2 A 23.514 23.514 0 0 0 99.021 66.017 Q 101.369 65.713 103.15 64.9 Q 106 63.6 107.7 62.05 A 32.899 32.899 0 0 0 108.47 61.327 Q 109.524 60.302 109.9 59.7 A 14.686 14.686 0 0 1 110.275 59.182 Q 110.833 58.446 111.203 58.206 A 1.01 1.01 0 0 1 111.3 58.15 A 1.786 1.786 0 0 1 111.65 58.024 Q 112.127 57.9 112.9 57.9 L 114.5 57.9 A 2.459 2.459 0 0 1 115.41 58.065 A 2.282 2.282 0 0 1 116.05 58.45 Q 116.7 59 116.6 59.9 A 4.013 4.013 0 0 1 116.389 60.889 Q 116.024 61.973 115.05 63.35 Q 113.798 65.12 111.652 66.852 A 27.286 27.286 0 0 1 110.95 67.4 A 20.254 20.254 0 0 1 107.631 69.416 A 27.116 27.116 0 0 1 104.5 70.7 Q 100.7 72 96 72 A 23.902 23.902 0 0 1 89.16 71.07 A 18.309 18.309 0 0 1 80.6 65.65 A 24.599 24.599 0 0 1 75.268 55.754 A 34.605 34.605 0 0 1 74.1 49 Q 74.005 47.569 74 45.226 A 121.622 121.622 0 0 1 74 45 Q 74 42.866 74.073 41.461 A 31.299 31.299 0 0 1 74.1 41 A 34.454 34.454 0 0 1 75.226 34.32 A 27.349 27.349 0 0 1 77.3 29 A 20.467 20.467 0 0 1 82.703 22.332 A 19.89 19.89 0 0 1 84.75 20.9 A 19.599 19.599 0 0 1 92.016 18.298 A 25.772 25.772 0 0 1 96 18 A 26.343 26.343 0 0 1 101.628 18.572 A 19.347 19.347 0 0 1 107.9 21.1 A 19.566 19.566 0 0 1 114.567 28.254 A 24.323 24.323 0 0 1 115.45 30 Q 118.021 35.628 118.098 43.326 A 47.716 47.716 0 0 1 118.1 43.8 Z M 338.8 43.8 L 338.8 45.3 A 2.49 2.49 0 0 1 338.701 46.02 A 1.936 1.936 0 0 1 338.15 46.9 A 2.24 2.24 0 0 1 336.866 47.479 A 3.03 3.03 0 0 1 336.5 47.5 L 300.9 47.5 L 300.9 47.9 L 300.9 48.5 Q 301.1 53 303 57.05 Q 304.9 61.1 308.4 63.65 Q 311.9 66.2 316.7 66.2 A 23.514 23.514 0 0 0 319.721 66.017 Q 322.069 65.713 323.85 64.9 Q 326.7 63.6 328.4 62.05 A 32.899 32.899 0 0 0 329.17 61.327 Q 330.224 60.302 330.6 59.7 A 14.686 14.686 0 0 1 330.975 59.182 Q 331.533 58.446 331.903 58.206 A 1.01 1.01 0 0 1 332 58.15 A 1.786 1.786 0 0 1 332.35 58.024 Q 332.827 57.9 333.6 57.9 L 335.2 57.9 A 2.459 2.459 0 0 1 336.11 58.065 A 2.282 2.282 0 0 1 336.75 58.45 Q 337.4 59 337.3 59.9 A 4.013 4.013 0 0 1 337.089 60.889 Q 336.724 61.973 335.75 63.35 Q 334.498 65.12 332.352 66.852 A 27.286 27.286 0 0 1 331.65 67.4 A 20.254 20.254 0 0 1 328.331 69.416 A 27.116 27.116 0 0 1 325.2 70.7 Q 321.4 72 316.7 72 A 23.902 23.902 0 0 1 309.86 71.07 A 18.309 18.309 0 0 1 301.3 65.65 A 24.599 24.599 0 0 1 295.968 55.754 A 34.605 34.605 0 0 1 294.8 49 Q 294.705 47.569 294.7 45.226 A 121.622 121.622 0 0 1 294.7 45 Q 294.7 42.866 294.773 41.461 A 31.299 31.299 0 0 1 294.8 41 A 34.454 34.454 0 0 1 295.926 34.32 A 27.349 27.349 0 0 1 298 29 A 20.467 20.467 0 0 1 303.403 22.332 A 19.89 19.89 0 0 1 305.45 20.9 A 19.599 19.599 0 0 1 312.716 18.298 A 25.772 25.772 0 0 1 316.7 18 A 26.343 26.343 0 0 1 322.328 18.572 A 19.347 19.347 0 0 1 328.6 21.1 A 19.566 19.566 0 0 1 335.267 28.254 A 24.323 24.323 0 0 1 336.15 30 Q 338.721 35.628 338.798 43.326 A 47.716 47.716 0 0 1 338.8 43.8 Z M 255 71 L 233.2 71 A 2.705 2.705 0 0 1 232.506 70.916 A 1.97 1.97 0 0 1 231.6 70.4 A 2.008 2.008 0 0 1 231.042 69.303 A 2.864 2.864 0 0 1 231 68.8 L 231 3.3 A 3.246 3.246 0 0 1 231.065 2.632 Q 231.197 2.003 231.6 1.6 A 2.008 2.008 0 0 1 232.697 1.042 A 2.864 2.864 0 0 1 233.2 1 L 254.5 1 Q 261.342 1 266.268 2.292 A 23.489 23.489 0 0 1 271.1 4.1 Q 277.1 7.2 279.65 13.25 A 31.244 31.244 0 0 1 281.497 19.476 Q 282.247 23.361 282.3 28 Q 282.4 32.5 282.4 35.95 Q 282.4 38.915 282.326 42.655 A 502.962 502.962 0 0 1 282.3 43.9 A 59.05 59.05 0 0 1 281.843 50.225 Q 281.182 55.303 279.6 59.1 Q 277.1 65.1 271.2 68.05 Q 267.03 70.135 260.662 70.747 A 59.391 59.391 0 0 1 255 71 Z M 237.3 7 L 237.3 65 L 254.5 65 A 48.716 48.716 0 0 0 259.173 64.79 Q 263.953 64.328 267.15 62.85 Q 271.8 60.7 273.85 55.95 A 22.436 22.436 0 0 0 275.113 51.959 Q 275.938 48.275 276 43.4 A 207.936 207.936 0 0 0 276.061 41.256 Q 276.1 39.556 276.1 38.15 L 276.1 33.7 A 117.874 117.874 0 0 0 276.086 31.938 Q 276.063 30.375 276 28.5 Q 275.8 17.5 270.9 12.25 A 14.002 14.002 0 0 0 265.868 8.9 Q 261.514 7.121 254.906 7.008 A 53.026 53.026 0 0 0 254 7 L 237.3 7 Z M 80.2 41.5 L 80.2 41.9 L 112 41.9 L 112 41.5 A 22.614 22.614 0 0 0 111.399 36.192 A 18.881 18.881 0 0 0 110.1 32.5 Q 108.2 28.5 104.6 26.15 A 14.328 14.328 0 0 0 98.863 24.01 A 18.888 18.888 0 0 0 96 23.8 A 17.754 17.754 0 0 0 91.784 24.278 A 13.638 13.638 0 0 0 87.45 26.15 Q 83.9 28.5 82.05 32.5 A 20.056 20.056 0 0 0 80.347 38.757 A 24.925 24.925 0 0 0 80.2 41.5 Z M 300.9 41.5 L 300.9 41.9 L 332.7 41.9 L 332.7 41.5 A 22.614 22.614 0 0 0 332.099 36.192 A 18.881 18.881 0 0 0 330.8 32.5 Q 328.9 28.5 325.3 26.15 A 14.328 14.328 0 0 0 319.563 24.01 A 18.888 18.888 0 0 0 316.7 23.8 A 17.754 17.754 0 0 0 312.484 24.278 A 13.638 13.638 0 0 0 308.15 26.15 Q 304.6 28.5 302.75 32.5 A 20.056 20.056 0 0 0 301.047 38.757 A 24.925 24.925 0 0 0 300.9 41.5 Z" vector-effect="non-scaling-stroke"/></g></svg>